<svg width="1728" height="173" viewBox="0 0 1728 173" fill="none" xmlns="http://www.w3.org/2000/svg">
<rect width="1728" height="173" fill="black" fill-opacity="0.5"/>
<path d="M590.568 81.192C589.917 81.192 589.32 81.064 588.776 80.808C588.243 80.552 587.779 80.184 587.384 79.704C586.989 79.224 586.685 78.648 586.472 77.976C586.259 77.304 586.152 76.5467 586.152 75.704C586.152 74.5947 586.339 73.6347 586.712 72.824C587.096 72.0027 587.624 71.3733 588.296 70.936C588.979 70.488 589.768 70.264 590.664 70.264C591.283 70.264 591.827 70.392 592.296 70.648C592.765 70.904 593.139 71.1973 593.416 71.528L592.968 72.008C592.691 71.6773 592.36 71.416 591.976 71.224C591.592 71.032 591.155 70.936 590.664 70.936C589.896 70.936 589.229 71.1333 588.664 71.528C588.109 71.912 587.677 72.4613 587.368 73.176C587.069 73.88 586.92 74.7227 586.92 75.704C586.92 76.6747 587.069 77.5227 587.368 78.248C587.677 78.9733 588.109 79.5333 588.664 79.928C589.219 80.3227 589.875 80.52 590.632 80.52C591.176 80.52 591.656 80.4133 592.072 80.2C592.499 79.976 592.899 79.6507 593.272 79.224L593.704 79.688C593.309 80.1467 592.861 80.5147 592.36 80.792C591.859 81.0587 591.261 81.192 590.568 81.192ZM599.394 81.192C598.626 81.192 597.943 80.968 597.346 80.52C596.759 80.072 596.295 79.4373 595.954 78.616C595.623 77.784 595.458 76.808 595.458 75.688C595.458 74.5787 595.623 73.6187 595.954 72.808C596.295 71.9867 596.759 71.3573 597.346 70.92C597.943 70.4827 598.626 70.264 599.394 70.264C600.162 70.264 600.839 70.4827 601.426 70.92C602.023 71.3573 602.487 71.9867 602.818 72.808C603.159 73.6187 603.33 74.5787 603.33 75.688C603.33 76.808 603.159 77.784 602.818 78.616C602.487 79.4373 602.023 80.072 601.426 80.52C600.839 80.968 600.162 81.192 599.394 81.192ZM599.394 80.52C600.023 80.52 600.572 80.3227 601.042 79.928C601.522 79.5333 601.895 78.9733 602.162 78.248C602.428 77.5227 602.562 76.6693 602.562 75.688C602.562 74.7173 602.428 73.8747 602.162 73.16C601.895 72.4453 601.522 71.896 601.042 71.512C600.572 71.128 600.023 70.936 599.394 70.936C598.764 70.936 598.21 71.128 597.73 71.512C597.26 71.896 596.892 72.4453 596.626 73.16C596.359 73.8747 596.226 74.7173 596.226 75.688C596.226 76.6693 596.359 77.5227 596.626 78.248C596.892 78.9733 597.26 79.5333 597.73 79.928C598.21 80.3227 598.764 80.52 599.394 80.52ZM606.076 81V70.456H608.94C609.729 70.456 610.401 70.552 610.956 70.744C611.521 70.9253 611.953 71.2347 612.252 71.672C612.55 72.0987 612.7 72.6747 612.7 73.4C612.7 74.0827 612.55 74.6533 612.252 75.112C611.953 75.56 611.521 75.9013 610.956 76.136C610.401 76.36 609.729 76.472 608.94 76.472H606.812V81H606.076ZM606.812 75.848H608.764C609.841 75.848 610.641 75.656 611.164 75.272C611.686 74.8773 611.948 74.2533 611.948 73.4C611.948 72.5147 611.686 71.9067 611.164 71.576C610.641 71.2453 609.841 71.08 608.764 71.08H606.812V75.848ZM618.213 81V77.128L614.597 70.456H615.349L617.237 73.944C617.461 74.3387 617.68 74.744 617.893 75.16C618.117 75.576 618.347 75.9973 618.581 76.424H618.645C618.891 75.9973 619.125 75.576 619.349 75.16C619.573 74.744 619.797 74.3333 620.021 73.928L621.845 70.456H622.565L618.949 77.128V81H618.213ZM625.247 81V70.456H628.255C628.959 70.456 629.567 70.5467 630.079 70.728C630.602 70.9093 631.007 71.208 631.295 71.624C631.583 72.0293 631.727 72.568 631.727 73.24C631.727 73.88 631.583 74.4187 631.295 74.856C631.007 75.2827 630.602 75.608 630.079 75.832C629.567 76.0453 628.959 76.152 628.255 76.152H625.983V81H625.247ZM625.983 75.544H628.063C629.002 75.544 629.722 75.3573 630.223 74.984C630.724 74.6 630.975 74.0187 630.975 73.24C630.975 72.4507 630.724 71.896 630.223 71.576C629.722 71.2453 629.002 71.08 628.063 71.08H625.983V75.544ZM628.095 75.944L628.799 75.736L631.935 81H631.071L628.095 75.944ZM634.681 81V80.36H637.401V71.096H634.681V70.456H640.857V71.096H638.137V80.36H640.857V81H634.681ZM647.907 81.192C647.032 81.192 646.264 80.968 645.603 80.52C644.941 80.072 644.424 79.4373 644.051 78.616C643.688 77.7947 643.507 76.824 643.507 75.704C643.507 74.5947 643.693 73.6347 644.067 72.824C644.451 72.0027 644.984 71.3733 645.667 70.936C646.349 70.488 647.144 70.264 648.051 70.264C648.744 70.264 649.315 70.4027 649.763 70.68C650.221 70.9467 650.584 71.2293 650.851 71.528L650.419 72.008C650.163 71.7093 649.843 71.4587 649.459 71.256C649.075 71.0427 648.605 70.936 648.051 70.936C647.272 70.936 646.6 71.1333 646.035 71.528C645.48 71.912 645.048 72.4613 644.739 73.176C644.429 73.88 644.275 74.7227 644.275 75.704C644.275 76.6747 644.419 77.5227 644.707 78.248C645.005 78.9733 645.427 79.5333 645.971 79.928C646.525 80.3227 647.187 80.52 647.955 80.52C648.424 80.52 648.861 80.4507 649.267 80.312C649.672 80.1733 649.997 79.976 650.243 79.72V76.44H647.811V75.816H650.963V79.992C650.643 80.344 650.221 80.632 649.699 80.856C649.187 81.08 648.589 81.192 647.907 81.192ZM653.564 81V70.456H654.316V75.08H659.596V70.456H660.348V81H659.596V75.72H654.316V81H653.564ZM666.182 81V71.08H662.518V70.456H670.582V71.08H666.918V81H666.182ZM685.738 81.192C684.916 81.192 684.191 80.9733 683.562 80.536C682.932 80.088 682.436 79.464 682.074 78.664C681.711 77.864 681.53 76.9253 681.53 75.848C681.53 74.76 681.711 73.8213 682.074 73.032C682.436 72.2427 682.932 71.6347 683.562 71.208C684.191 70.7813 684.916 70.568 685.738 70.568C686.559 70.568 687.284 70.7813 687.914 71.208C688.543 71.6347 689.039 72.2427 689.402 73.032C689.764 73.8213 689.946 74.76 689.946 75.848C689.946 76.9253 689.764 77.864 689.402 78.664C689.039 79.464 688.543 80.088 687.914 80.536C687.284 80.9733 686.559 81.192 685.738 81.192ZM685.738 80.696C686.474 80.696 687.114 80.4987 687.658 80.104C688.202 79.6987 688.623 79.128 688.922 78.392C689.231 77.656 689.385 76.808 689.385 75.848C689.385 74.8773 689.231 74.0347 688.922 73.32C688.623 72.6053 688.202 72.0507 687.658 71.656C687.114 71.2507 686.474 71.048 685.738 71.048C685.002 71.048 684.362 71.2507 683.818 71.656C683.274 72.0507 682.847 72.6053 682.538 73.32C682.239 74.0347 682.09 74.8773 682.09 75.848C682.09 76.808 682.239 77.656 682.538 78.392C682.847 79.128 683.274 79.6987 683.818 80.104C684.362 80.4987 685.002 80.696 685.738 80.696ZM685.818 79.016C685.37 79.016 684.959 78.8933 684.586 78.648C684.212 78.392 683.908 78.0293 683.674 77.56C683.45 77.0907 683.338 76.52 683.338 75.848C683.338 75.2293 683.455 74.696 683.69 74.248C683.935 73.8 684.25 73.4587 684.634 73.224C685.028 72.9787 685.45 72.856 685.898 72.856C686.26 72.856 686.564 72.9253 686.81 73.064C687.066 73.192 687.295 73.3627 687.498 73.576L687.146 73.992C686.943 73.8213 686.746 73.688 686.554 73.592C686.372 73.496 686.154 73.448 685.898 73.448C685.354 73.448 684.906 73.6667 684.554 74.104C684.202 74.5413 684.026 75.1227 684.026 75.848C684.026 76.648 684.191 77.2773 684.522 77.736C684.863 78.1947 685.306 78.424 685.85 78.424C686.18 78.424 686.463 78.36 686.698 78.232C686.932 78.104 687.151 77.9547 687.354 77.784L687.658 78.232C687.423 78.4453 687.167 78.632 686.89 78.792C686.612 78.9413 686.255 79.016 685.818 79.016ZM701.437 81V80.552C702.696 79.4107 703.741 78.4293 704.573 77.608C705.405 76.776 706.029 76.0293 706.445 75.368C706.861 74.7067 707.069 74.072 707.069 73.464C707.069 72.824 706.866 72.2853 706.461 71.848C706.066 71.4107 705.426 71.192 704.541 71.192C704.018 71.192 703.528 71.32 703.069 71.576C702.61 71.8213 702.205 72.1413 701.853 72.536L701.389 72.088C701.816 71.6613 702.285 71.304 702.797 71.016C703.32 70.728 703.922 70.584 704.605 70.584C705.266 70.584 705.832 70.7013 706.301 70.936C706.781 71.1707 707.144 71.5067 707.389 71.944C707.645 72.3707 707.773 72.872 707.773 73.448C707.773 74.12 707.56 74.8027 707.133 75.496C706.706 76.1893 706.098 76.936 705.309 77.736C704.52 78.5253 703.586 79.4267 702.509 80.44C702.84 80.4187 703.16 80.4027 703.469 80.392C703.789 80.3707 704.109 80.36 704.429 80.36H708.349V81H701.437ZM714.519 81.192C713.783 81.192 713.153 80.9787 712.631 80.552C712.108 80.1253 711.708 79.5173 711.431 78.728C711.153 77.928 711.015 76.968 711.015 75.848C711.015 74.152 711.319 72.8507 711.927 71.944C712.545 71.0373 713.409 70.584 714.519 70.584C715.639 70.584 716.503 71.0373 717.111 71.944C717.719 72.8507 718.023 74.152 718.023 75.848C718.023 76.968 717.884 77.928 717.607 78.728C717.34 79.5173 716.945 80.1253 716.423 80.552C715.9 80.9787 715.265 81.192 714.519 81.192ZM714.519 80.584C715.073 80.584 715.559 80.408 715.975 80.056C716.401 79.6933 716.732 79.16 716.967 78.456C717.201 77.752 717.319 76.8827 717.319 75.848C717.319 74.8133 717.201 73.9493 716.967 73.256C716.732 72.5627 716.401 72.0453 715.975 71.704C715.559 71.3627 715.073 71.192 714.519 71.192C713.964 71.192 713.473 71.3627 713.047 71.704C712.631 72.0453 712.305 72.5627 712.071 73.256C711.836 73.9493 711.719 74.8133 711.719 75.848C711.719 76.8827 711.836 77.752 712.071 78.456C712.305 79.16 712.631 79.6933 713.047 80.056C713.473 80.408 713.964 80.584 714.519 80.584ZM714.519 76.664C714.305 76.664 714.103 76.584 713.911 76.424C713.729 76.2533 713.639 76.0133 713.639 75.704C713.639 75.384 713.729 75.144 713.911 74.984C714.103 74.824 714.305 74.744 714.519 74.744C714.743 74.744 714.945 74.824 715.127 74.984C715.308 75.144 715.399 75.384 715.399 75.704C715.399 76.0133 715.308 76.2533 715.127 76.424C714.945 76.584 714.743 76.664 714.519 76.664ZM720.625 81V80.552C721.883 79.4107 722.929 78.4293 723.761 77.608C724.593 76.776 725.217 76.0293 725.633 75.368C726.049 74.7067 726.257 74.072 726.257 73.464C726.257 72.824 726.054 72.2853 725.649 71.848C725.254 71.4107 724.614 71.192 723.729 71.192C723.206 71.192 722.715 71.32 722.257 71.576C721.798 71.8213 721.393 72.1413 721.041 72.536L720.577 72.088C721.003 71.6613 721.473 71.304 721.985 71.016C722.507 70.728 723.11 70.584 723.793 70.584C724.454 70.584 725.019 70.7013 725.489 70.936C725.969 71.1707 726.331 71.5067 726.577 71.944C726.833 72.3707 726.961 72.872 726.961 73.448C726.961 74.12 726.747 74.8027 726.321 75.496C725.894 76.1893 725.286 76.936 724.497 77.736C723.707 78.5253 722.774 79.4267 721.697 80.44C722.027 80.4187 722.347 80.4027 722.657 80.392C722.977 80.3707 723.297 80.36 723.617 80.36H727.536V81H720.625ZM733.498 81.192C732.89 81.192 732.357 81.1227 731.898 80.984C731.45 80.8453 731.066 80.6693 730.746 80.456C730.426 80.2427 730.144 80.0293 729.898 79.816L730.298 79.32C730.533 79.5333 730.794 79.736 731.082 79.928C731.37 80.12 731.706 80.2747 732.09 80.392C732.485 80.5093 732.954 80.568 733.498 80.568C734.032 80.568 734.517 80.456 734.954 80.232C735.402 79.9973 735.76 79.672 736.026 79.256C736.293 78.84 736.426 78.36 736.426 77.816C736.426 76.9947 736.17 76.3493 735.658 75.88C735.146 75.4107 734.437 75.176 733.53 75.176C733.061 75.176 732.656 75.24 732.314 75.368C731.973 75.4853 731.616 75.6507 731.242 75.864L730.746 75.56L731.13 70.776H736.634V71.4H731.77L731.434 75.096C731.765 74.936 732.101 74.808 732.442 74.712C732.784 74.6053 733.184 74.552 733.642 74.552C734.314 74.552 734.917 74.6693 735.45 74.904C735.984 75.128 736.4 75.48 736.698 75.96C737.008 76.4293 737.162 77.0373 737.162 77.784C737.162 78.5093 736.986 79.128 736.634 79.64C736.293 80.152 735.84 80.5413 735.274 80.808C734.72 81.064 734.128 81.192 733.498 81.192ZM753.038 81.192C752.238 81.192 751.523 81.0427 750.894 80.744C750.275 80.4453 749.747 80.0667 749.31 79.608L749.79 79.096C750.195 79.5333 750.675 79.88 751.23 80.136C751.795 80.392 752.403 80.52 753.054 80.52C753.896 80.52 754.568 80.328 755.07 79.944C755.571 79.5493 755.822 79.0427 755.822 78.424C755.822 77.976 755.726 77.6187 755.534 77.352C755.352 77.0853 755.107 76.8667 754.798 76.696C754.488 76.5253 754.142 76.36 753.758 76.2L752.174 75.48C751.843 75.3413 751.496 75.1707 751.134 74.968C750.782 74.7547 750.483 74.4827 750.238 74.152C749.992 73.8107 749.87 73.3787 749.87 72.856C749.87 72.344 750.008 71.896 750.286 71.512C750.563 71.1173 750.947 70.8133 751.438 70.6C751.928 70.376 752.478 70.264 753.086 70.264C753.758 70.264 754.355 70.392 754.878 70.648C755.411 70.8933 755.848 71.1867 756.19 71.528L755.758 72.008C755.438 71.6773 755.054 71.416 754.606 71.224C754.158 71.032 753.646 70.936 753.07 70.936C752.344 70.936 751.752 71.1067 751.294 71.448C750.835 71.7893 750.606 72.248 750.606 72.824C750.606 73.2293 750.712 73.56 750.926 73.816C751.15 74.072 751.411 74.28 751.71 74.44C752.019 74.6 752.312 74.7387 752.59 74.856L754.174 75.56C754.6 75.7307 754.995 75.9333 755.358 76.168C755.72 76.392 756.008 76.68 756.222 77.032C756.446 77.3733 756.558 77.816 756.558 78.36C756.558 78.8933 756.408 79.3787 756.11 79.816C755.822 80.2427 755.411 80.5787 754.878 80.824C754.355 81.0693 753.742 81.192 753.038 81.192ZM759.576 81V70.456H762.44C763.229 70.456 763.901 70.552 764.456 70.744C765.021 70.9253 765.453 71.2347 765.752 71.672C766.05 72.0987 766.2 72.6747 766.2 73.4C766.2 74.0827 766.05 74.6533 765.752 75.112C765.453 75.56 765.021 75.9013 764.456 76.136C763.901 76.36 763.229 76.472 762.44 76.472H760.312V81H759.576ZM760.312 75.848H762.264C763.341 75.848 764.141 75.656 764.664 75.272C765.186 74.8773 765.448 74.2533 765.448 73.4C765.448 72.5147 765.186 71.9067 764.664 71.576C764.141 71.2453 763.341 71.08 762.264 71.08H760.312V75.848ZM769.153 81V70.456H772.161C772.865 70.456 773.473 70.5467 773.985 70.728C774.508 70.9093 774.913 71.208 775.201 71.624C775.489 72.0293 775.633 72.568 775.633 73.24C775.633 73.88 775.489 74.4187 775.201 74.856C774.913 75.2827 774.508 75.608 773.985 75.832C773.473 76.0453 772.865 76.152 772.161 76.152H769.889V81H769.153ZM769.889 75.544H771.969C772.908 75.544 773.628 75.3573 774.129 74.984C774.631 74.6 774.881 74.0187 774.881 73.24C774.881 72.4507 774.631 71.896 774.129 71.576C773.628 71.2453 772.908 71.08 771.969 71.08H769.889V75.544ZM772.001 75.944L772.705 75.736L775.841 81H774.977L772.001 75.944ZM778.587 81V80.36H781.307V71.096H778.587V70.456H784.763V71.096H782.043V80.36H784.763V81H778.587ZM787.941 81V70.456H788.725L792.837 77.912L793.957 79.992H793.989C793.978 79.4907 793.957 78.984 793.925 78.472C793.903 77.96 793.893 77.448 793.893 76.936V70.456H794.597V81H793.813L789.701 73.544L788.581 71.464H788.549C788.559 71.976 788.575 72.4773 788.597 72.968C788.629 73.448 788.645 73.944 788.645 74.456V81H787.941ZM801.407 81.192C800.532 81.192 799.764 80.968 799.103 80.52C798.441 80.072 797.924 79.4373 797.551 78.616C797.188 77.7947 797.007 76.824 797.007 75.704C797.007 74.5947 797.193 73.6347 797.567 72.824C797.951 72.0027 798.484 71.3733 799.167 70.936C799.849 70.488 800.644 70.264 801.551 70.264C802.244 70.264 802.815 70.4027 803.263 70.68C803.721 70.9467 804.084 71.2293 804.351 71.528L803.919 72.008C803.663 71.7093 803.343 71.4587 802.959 71.256C802.575 71.0427 802.105 70.936 801.551 70.936C800.772 70.936 800.1 71.1333 799.535 71.528C798.98 71.912 798.548 72.4613 798.239 73.176C797.929 73.88 797.775 74.7227 797.775 75.704C797.775 76.6747 797.919 77.5227 798.207 78.248C798.505 78.9733 798.927 79.5333 799.471 79.928C800.025 80.3227 800.687 80.52 801.455 80.52C801.924 80.52 802.361 80.4507 802.767 80.312C803.172 80.1733 803.497 79.976 803.743 79.72V76.44H801.311V75.816H804.463V79.992C804.143 80.344 803.721 80.632 803.199 80.856C802.687 81.08 802.089 81.192 801.407 81.192ZM816.962 81V80.36H819.682V71.096H816.962V70.456H823.138V71.096H820.418V80.36H823.138V81H816.962ZM838.854 81L835.382 70.456H836.166L838.118 76.616C838.32 77.256 838.502 77.848 838.661 78.392C838.822 78.9253 839.008 79.512 839.222 80.152H839.286C839.51 79.512 839.702 78.9253 839.862 78.392C840.032 77.848 840.214 77.256 840.406 76.616L842.358 70.456H843.094L839.654 81H838.854ZM844.751 81L848.463 70.456H849.199L852.911 81H852.127L850.031 74.792C849.818 74.1627 849.615 73.56 849.423 72.984C849.231 72.3973 849.045 71.784 848.863 71.144H848.799C848.607 71.784 848.415 72.3973 848.223 72.984C848.042 73.56 847.845 74.1627 847.631 74.792L845.487 81H844.751ZM846.447 77.384V76.76H851.167V77.384H846.447ZM855.097 81V70.456H855.881L859.993 77.912L861.113 79.992H861.145C861.134 79.4907 861.113 78.984 861.081 78.472C861.06 77.96 861.049 77.448 861.049 76.936V70.456H861.753V81H860.969L856.857 73.544L855.737 71.464H855.705C855.716 71.976 855.732 72.4773 855.753 72.968C855.785 73.448 855.801 73.944 855.801 74.456V81H855.097ZM864.755 81V70.456H867.187C868.264 70.456 869.155 70.6693 869.859 71.096C870.573 71.5227 871.101 72.1307 871.443 72.92C871.784 73.7093 871.955 74.632 871.955 75.688C871.955 76.7547 871.784 77.688 871.443 78.488C871.101 79.288 870.579 79.9067 869.875 80.344C869.171 80.7813 868.28 81 867.203 81H864.755ZM865.491 80.376H867.123C868.072 80.376 868.845 80.1787 869.443 79.784C870.04 79.3787 870.477 78.824 870.755 78.12C871.043 77.416 871.187 76.6053 871.187 75.688C871.187 74.7707 871.043 73.9653 870.755 73.272C870.477 72.5787 870.04 72.04 869.443 71.656C868.845 71.272 868.072 71.08 867.123 71.08H865.491V80.376ZM874.845 81V70.456H881.085V71.096H875.581V75.08H880.221V75.72H875.581V80.36H881.245V81H874.845ZM886.838 81V71.08H883.174V70.456H891.238V71.08H887.574V81H886.838ZM895.536 84.376L895.28 83.864C895.952 83.5333 896.448 83.1227 896.768 82.632C897.099 82.152 897.264 81.5333 897.264 80.776L896.832 79.56L897.696 80.632C897.579 80.7813 897.451 80.8827 897.312 80.936C897.173 80.9787 897.035 81 896.896 81C896.715 81 896.549 80.968 896.4 80.904C896.261 80.8293 896.149 80.7227 896.064 80.584C895.979 80.4453 895.936 80.2693 895.936 80.056C895.936 79.7253 896.032 79.4853 896.224 79.336C896.427 79.176 896.651 79.096 896.896 79.096C897.269 79.096 897.547 79.2453 897.728 79.544C897.92 79.8427 898.016 80.2373 898.016 80.728C898.016 81.624 897.787 82.376 897.328 82.984C896.869 83.592 896.272 84.056 895.536 84.376ZM912.9 81V80.36H915.62V71.096H912.9V70.456H919.076V71.096H916.356V80.36H919.076V81H912.9ZM922.253 81V70.456H923.037L927.149 77.912L928.269 79.992H928.301C928.291 79.4907 928.269 78.984 928.237 78.472C928.216 77.96 928.205 77.448 928.205 76.936V70.456H928.909V81H928.125L924.013 73.544L922.893 71.464H922.861C922.872 71.976 922.888 72.4773 922.909 72.968C922.941 73.448 922.957 73.944 922.957 74.456V81H922.253ZM935.943 81.192C935.292 81.192 934.695 81.064 934.151 80.808C933.618 80.552 933.154 80.184 932.759 79.704C932.364 79.224 932.06 78.648 931.847 77.976C931.634 77.304 931.527 76.5467 931.527 75.704C931.527 74.5947 931.714 73.6347 932.087 72.824C932.471 72.0027 932.999 71.3733 933.671 70.936C934.354 70.488 935.143 70.264 936.039 70.264C936.658 70.264 937.202 70.392 937.671 70.648C938.14 70.904 938.514 71.1973 938.791 71.528L938.343 72.008C938.066 71.6773 937.735 71.416 937.351 71.224C936.967 71.032 936.53 70.936 936.039 70.936C935.271 70.936 934.604 71.1333 934.039 71.528C933.484 71.912 933.052 72.4613 932.743 73.176C932.444 73.88 932.295 74.7227 932.295 75.704C932.295 76.6747 932.444 77.5227 932.743 78.248C933.052 78.9733 933.484 79.5333 934.039 79.928C934.594 80.3227 935.25 80.52 936.007 80.52C936.551 80.52 937.031 80.4133 937.447 80.2C937.874 79.976 938.274 79.6507 938.647 79.224L939.079 79.688C938.684 80.1467 938.236 80.5147 937.735 80.792C937.234 81.0587 936.636 81.192 935.943 81.192ZM944.769 81.192C944.523 81.192 944.299 81.1013 944.097 80.92C943.905 80.728 943.809 80.472 943.809 80.152C943.809 79.8107 943.905 79.5547 944.097 79.384C944.299 79.2027 944.523 79.112 944.769 79.112C945.025 79.112 945.249 79.2027 945.441 79.384C945.633 79.5547 945.729 79.8107 945.729 80.152C945.729 80.472 945.633 80.728 945.441 80.92C945.249 81.1013 945.025 81.192 944.769 81.192ZM959.876 81L963.588 70.456H964.324L968.036 81H967.252L965.156 74.792C964.943 74.1627 964.74 73.56 964.548 72.984C964.356 72.3973 964.17 71.784 963.988 71.144H963.924C963.732 71.784 963.54 72.3973 963.348 72.984C963.167 73.56 962.97 74.1627 962.756 74.792L960.612 81H959.876ZM961.572 77.384V76.76H966.292V77.384H961.572ZM971.15 81V70.456H971.854V80.36H977.374V81H971.15ZM980.744 81V70.456H981.448V80.36H986.968V81H980.744ZM999.403 81V70.456H1002.41C1003.12 70.456 1003.72 70.5467 1004.24 70.728C1004.76 70.9093 1005.16 71.208 1005.45 71.624C1005.74 72.0293 1005.88 72.568 1005.88 73.24C1005.88 73.88 1005.74 74.4187 1005.45 74.856C1005.16 75.2827 1004.76 75.608 1004.24 75.832C1003.72 76.0453 1003.12 76.152 1002.41 76.152H1000.14V81H999.403ZM1000.14 75.544H1002.22C1003.16 75.544 1003.88 75.3573 1004.38 74.984C1004.88 74.6 1005.13 74.0187 1005.13 73.24C1005.13 72.4507 1004.88 71.896 1004.38 71.576C1003.88 71.2453 1003.16 71.08 1002.22 71.08H1000.14V75.544ZM1002.25 75.944L1002.96 75.736L1006.09 81H1005.23L1002.25 75.944ZM1008.84 81V80.36H1011.56V71.096H1008.84V70.456H1015.01V71.096H1012.29V80.36H1015.01V81H1008.84ZM1022.06 81.192C1021.19 81.192 1020.42 80.968 1019.76 80.52C1019.1 80.072 1018.58 79.4373 1018.21 78.616C1017.84 77.7947 1017.66 76.824 1017.66 75.704C1017.66 74.5947 1017.85 73.6347 1018.22 72.824C1018.61 72.0027 1019.14 71.3733 1019.82 70.936C1020.51 70.488 1021.3 70.264 1022.21 70.264C1022.9 70.264 1023.47 70.4027 1023.92 70.68C1024.38 70.9467 1024.74 71.2293 1025.01 71.528L1024.57 72.008C1024.32 71.7093 1024 71.4587 1023.61 71.256C1023.23 71.0427 1022.76 70.936 1022.21 70.936C1021.43 70.936 1020.76 71.1333 1020.19 71.528C1019.64 71.912 1019.2 72.4613 1018.89 73.176C1018.59 73.88 1018.43 74.7227 1018.43 75.704C1018.43 76.6747 1018.57 77.5227 1018.86 78.248C1019.16 78.9733 1019.58 79.5333 1020.13 79.928C1020.68 80.3227 1021.34 80.52 1022.11 80.52C1022.58 80.52 1023.02 80.4507 1023.42 80.312C1023.83 80.1733 1024.15 79.976 1024.4 79.72V76.44H1021.97V75.816H1025.12V79.992C1024.8 80.344 1024.38 80.632 1023.85 80.856C1023.34 81.08 1022.75 81.192 1022.06 81.192ZM1027.72 81V70.456H1028.47V75.08H1033.75V70.456H1034.5V81H1033.75V75.72H1028.47V81H1027.72ZM1040.34 81V71.08H1036.67V70.456H1044.74V71.08H1041.07V81H1040.34ZM1050.44 81.192C1049.64 81.192 1048.93 81.0427 1048.3 80.744C1047.68 80.4453 1047.15 80.0667 1046.72 79.608L1047.2 79.096C1047.6 79.5333 1048.08 79.88 1048.64 80.136C1049.2 80.392 1049.81 80.52 1050.46 80.52C1051.3 80.52 1051.97 80.328 1052.48 79.944C1052.98 79.5493 1053.23 79.0427 1053.23 78.424C1053.23 77.976 1053.13 77.6187 1052.94 77.352C1052.76 77.0853 1052.51 76.8667 1052.2 76.696C1051.89 76.5253 1051.55 76.36 1051.16 76.2L1049.58 75.48C1049.25 75.3413 1048.9 75.1707 1048.54 74.968C1048.19 74.7547 1047.89 74.4827 1047.64 74.152C1047.4 73.8107 1047.28 73.3787 1047.28 72.856C1047.28 72.344 1047.41 71.896 1047.69 71.512C1047.97 71.1173 1048.35 70.8133 1048.84 70.6C1049.33 70.376 1049.88 70.264 1050.49 70.264C1051.16 70.264 1051.76 70.392 1052.28 70.648C1052.82 70.8933 1053.25 71.1867 1053.6 71.528L1053.16 72.008C1052.84 71.6773 1052.46 71.416 1052.01 71.224C1051.56 71.032 1051.05 70.936 1050.48 70.936C1049.75 70.936 1049.16 71.1067 1048.7 71.448C1048.24 71.7893 1048.01 72.248 1048.01 72.824C1048.01 73.2293 1048.12 73.56 1048.33 73.816C1048.56 74.072 1048.82 74.28 1049.12 74.44C1049.43 74.6 1049.72 74.7387 1050 74.856L1051.58 75.56C1052.01 75.7307 1052.4 75.9333 1052.76 76.168C1053.13 76.392 1053.41 76.68 1053.63 77.032C1053.85 77.3733 1053.96 77.816 1053.96 78.36C1053.96 78.8933 1053.81 79.3787 1053.52 79.816C1053.23 80.2427 1052.82 80.5787 1052.28 80.824C1051.76 81.0693 1051.15 81.192 1050.44 81.192ZM1066.56 81V70.456H1069.57C1070.27 70.456 1070.88 70.5467 1071.39 70.728C1071.91 70.9093 1072.32 71.208 1072.61 71.624C1072.9 72.0293 1073.04 72.568 1073.04 73.24C1073.04 73.88 1072.9 74.4187 1072.61 74.856C1072.32 75.2827 1071.91 75.608 1071.39 75.832C1070.88 76.0453 1070.27 76.152 1069.57 76.152H1067.3V81H1066.56ZM1067.3 75.544H1069.38C1070.31 75.544 1071.03 75.3573 1071.54 74.984C1072.04 74.6 1072.29 74.0187 1072.29 73.24C1072.29 72.4507 1072.04 71.896 1071.54 71.576C1071.03 71.2453 1070.31 71.08 1069.38 71.08H1067.3V75.544ZM1069.41 75.944L1070.11 75.736L1073.25 81H1072.38L1069.41 75.944ZM1076.31 81V70.456H1082.55V71.096H1077.05V75.08H1081.69V75.72H1077.05V80.36H1082.71V81H1076.31ZM1088.82 81.192C1088.02 81.192 1087.3 81.0427 1086.68 80.744C1086.06 80.4453 1085.53 80.0667 1085.09 79.608L1085.57 79.096C1085.98 79.5333 1086.46 79.88 1087.01 80.136C1087.58 80.392 1088.18 80.52 1088.84 80.52C1089.68 80.52 1090.35 80.328 1090.85 79.944C1091.35 79.5493 1091.6 79.0427 1091.6 78.424C1091.6 77.976 1091.51 77.6187 1091.32 77.352C1091.13 77.0853 1090.89 76.8667 1090.58 76.696C1090.27 76.5253 1089.92 76.36 1089.54 76.2L1087.96 75.48C1087.62 75.3413 1087.28 75.1707 1086.92 74.968C1086.56 74.7547 1086.26 74.4827 1086.02 74.152C1085.77 73.8107 1085.65 73.3787 1085.65 72.856C1085.65 72.344 1085.79 71.896 1086.07 71.512C1086.34 71.1173 1086.73 70.8133 1087.22 70.6C1087.71 70.376 1088.26 70.264 1088.87 70.264C1089.54 70.264 1090.14 70.392 1090.66 70.648C1091.19 70.8933 1091.63 71.1867 1091.97 71.528L1091.54 72.008C1091.22 71.6773 1090.84 71.416 1090.39 71.224C1089.94 71.032 1089.43 70.936 1088.85 70.936C1088.13 70.936 1087.53 71.1067 1087.08 71.448C1086.62 71.7893 1086.39 72.248 1086.39 72.824C1086.39 73.2293 1086.49 73.56 1086.71 73.816C1086.93 74.072 1087.19 74.28 1087.49 74.44C1087.8 74.6 1088.09 74.7387 1088.37 74.856L1089.96 75.56C1090.38 75.7307 1090.78 75.9333 1091.14 76.168C1091.5 76.392 1091.79 76.68 1092 77.032C1092.23 77.3733 1092.34 77.816 1092.34 78.36C1092.34 78.8933 1092.19 79.3787 1091.89 79.816C1091.6 80.2427 1091.19 80.5787 1090.66 80.824C1090.14 81.0693 1089.52 81.192 1088.82 81.192ZM1095.5 81V70.456H1101.74V71.096H1096.24V75.08H1100.88V75.72H1096.24V80.36H1101.9V81H1095.5ZM1104.93 81V70.456H1107.94C1108.65 70.456 1109.25 70.5467 1109.77 70.728C1110.29 70.9093 1110.69 71.208 1110.98 71.624C1111.27 72.0293 1111.41 72.568 1111.41 73.24C1111.41 73.88 1111.27 74.4187 1110.98 74.856C1110.69 75.2827 1110.29 75.608 1109.77 75.832C1109.25 76.0453 1108.65 76.152 1107.94 76.152H1105.67V81H1104.93ZM1105.67 75.544H1107.75C1108.69 75.544 1109.41 75.3573 1109.91 74.984C1110.41 74.6 1110.66 74.0187 1110.66 73.24C1110.66 72.4507 1110.41 71.896 1109.91 71.576C1109.41 71.2453 1108.69 71.08 1107.75 71.08H1105.67V75.544ZM1107.78 75.944L1108.49 75.736L1111.62 81H1110.76L1107.78 75.944ZM1117.07 81L1113.6 70.456H1114.38L1116.34 76.616C1116.54 77.256 1116.72 77.848 1116.88 78.392C1117.04 78.9253 1117.23 79.512 1117.44 80.152H1117.5C1117.73 79.512 1117.92 78.9253 1118.08 78.392C1118.25 77.848 1118.43 77.256 1118.62 76.616L1120.58 70.456H1121.31L1117.87 81H1117.07ZM1124.28 81V70.456H1130.52V71.096H1125.02V75.08H1129.66V75.72H1125.02V80.36H1130.68V81H1124.28ZM1133.38 81V70.456H1135.81C1136.89 70.456 1137.78 70.6693 1138.48 71.096C1139.2 71.5227 1139.73 72.1307 1140.07 72.92C1140.41 73.7093 1140.58 74.632 1140.58 75.688C1140.58 76.7547 1140.41 77.688 1140.07 78.488C1139.73 79.288 1139.2 79.9067 1138.5 80.344C1137.8 80.7813 1136.91 81 1135.83 81H1133.38ZM1134.12 80.376H1135.75C1136.7 80.376 1137.47 80.1787 1138.07 79.784C1138.67 79.3787 1139.1 78.824 1139.38 78.12C1139.67 77.416 1139.81 76.6053 1139.81 75.688C1139.81 74.7707 1139.67 73.9653 1139.38 73.272C1139.1 72.5787 1138.67 72.04 1138.07 71.656C1137.47 71.272 1136.7 71.08 1135.75 71.08H1134.12V80.376Z" fill="white"/>
</svg>
