<svg width="1460" height="178" viewBox="0 0 1460 178" fill="none" xmlns="http://www.w3.org/2000/svg">
<g opacity="0.5" clip-path="url(#clip0_148_52)">
<path d="M0 168.375C54.5424 93.8192 141.7 29.9106 248.242 8.45333C295.75 -1.37615 346.351 -2.39792 394.723 4.16187C414.421 6.68906 434.822 10.7421 453.52 16.1439C484.788 24.9788 514.25 37.2265 542.899 50.2916C566.479 60.9794 593.017 74.1739 616.783 84.487C635.795 92.7225 655.23 100.42 675.775 105.338C698.092 110.713 719.053 111.946 741.498 104.882C759.255 99.4799 776.054 91.0264 792.743 82.5184C814.229 71.4083 835.309 59.9848 858.431 49.2698C917.474 21.1574 984.239 3.41257 1053.06 1.26003C1118.76 -1.30122 1184.79 8.91653 1245.64 28.6436C1327.32 55.3596 1400.02 96.9527 1460.01 148.28L1455.3 153.94C1441.4 146.74 1427.14 139.554 1412.92 132.912C1399.25 126.353 1383.49 119.425 1369.44 113.485C1220.01 50.7208 1049.73 26.1573 901.235 104.289C826.816 141.979 765.306 192.57 669.232 174.063C656.756 171.719 644.118 168.552 632.252 164.71C596.865 153.43 564.266 136.952 532.414 120.522C490.577 99.0166 449.621 76.6398 402.394 64.5965C303.666 39.4335 207.804 53.5136 120.883 97.3546C78.7242 118.43 41.0827 144.731 6.13656 173.089L0.0169518 168.375H0Z" fill="#0DACC8"/>
</g>
<defs>
<clipPath id="clip0_148_52">
<rect width="1460" height="178" fill="white"/>
</clipPath>
</defs>
</svg>
